<svg xmlns="http://www.w3.org/2000/svg" xmlns:xlink="http://www.w3.org/1999/xlink" width="500" zoomAndPan="magnify" viewBox="0 0 375 374.999991" height="500" preserveAspectRatio="xMidYMid meet" version="1.0"><path fill="#FF902B" d="M 375.015625 187.574219 C 375.015625 137.484375 355.515625 90.398438 320.097656 54.980469 C 284.683594 19.566406 237.59375 0.0625 187.507812 0.0625 C 137.421875 0.0625 90.335938 19.566406 54.917969 54.980469 C 19.5 90.398438 0 137.484375 0 187.574219 C 0 232.746094 16.292969 276.390625 45.871094 310.453125 C 74 342.84375 112.320312 364.609375 154.238281 372.121094 L 170.605469 373.179688 L 170.605469 232.46875 C 170.605469 211.476562 176.378906 191.8125 186.417969 174.96875 C 196.453125 191.8125 202.226562 211.476562 202.226562 232.46875 L 202.226562 374 L 218.59375 372.503906 C 308.40625 357.554688 375.015625 279.636719 375.015625 187.574219 Z M 154.238281 232.46875 L 154.238281 276.191406 C 120.5625 263.851562 97.753906 231.773438 97.753906 195.164062 L 97.753906 120.101562 C 129.230469 122.371094 157.160156 137.632812 176.207031 160.527344 C 162.339844 181.09375 154.238281 205.851562 154.238281 232.46875 Z M 186.425781 147.300781 C 175.929688 135.378906 163.269531 125.398438 149.074219 117.992188 C 150.953125 115.566406 152.984375 113.246094 155.167969 111.0625 L 187.507812 78.722656 L 219.851562 111.0625 C 221.792969 113.007812 223.621094 115.058594 225.328125 117.199219 C 210.492188 124.683594 197.300781 134.949219 186.425781 147.300781 Z M 196.644531 160.527344 C 215.691406 137.632812 243.613281 122.371094 275.09375 120.101562 L 275.09375 195.164062 C 275.09375 231.402344 251.921875 263.84375 218.613281 276.183594 L 218.613281 232.46875 C 218.613281 205.851562 210.511719 181.09375 196.644531 160.527344 Z M 218.613281 355.882812 L 218.613281 293.4375 C 238.113281 287.5 255.660156 275.742188 268.601562 259.777344 C 283.34375 241.578125 291.464844 218.628906 291.464844 195.164062 L 291.464844 103.429688 L 283.28125 103.429688 C 268.421875 103.429688 254.144531 105.964844 240.84375 110.605469 C 238.023438 106.660156 234.863281 102.929688 231.421875 99.484375 L 187.507812 55.570312 L 143.585938 99.484375 C 139.960938 103.109375 136.667969 107.046875 133.738281 111.21875 C 119.953125 106.183594 105.078125 103.429688 89.570312 103.429688 L 81.386719 103.429688 L 81.386719 195.164062 C 81.386719 240.734375 111.089844 280.417969 154.238281 293.464844 L 154.238281 355.472656 C 75.113281 339.835938 16.367188 268.992188 16.367188 187.574219 C 16.367188 93.210938 93.140625 16.441406 187.5 16.441406 C 281.859375 16.441406 358.632812 93.210938 358.632812 187.574219 C 358.640625 270.675781 299.1875 341.140625 218.613281 355.882812 Z M 218.613281 355.882812 " fill-opacity="1" fill-rule="nonzero"/></svg>